<?xml version="1.0" encoding="UTF-8" standalone="no"?>
<!-- Created with Inkscape (http://www.inkscape.org/) -->

<svg
   width="479.69891mm"
   height="437.4834mm"
   viewBox="0 0 479.69892 437.48338"
   version="1.1"
   id="svg1"
   xml:space="preserve"
   xmlns:inkscape="http://www.inkscape.org/namespaces/inkscape"
   xmlns:sodipodi="http://sodipodi.sourceforge.net/DTD/sodipodi-0.dtd"
   xmlns="http://www.w3.org/2000/svg"
   xmlns:svg="http://www.w3.org/2000/svg"><sodipodi:namedview
     id="namedview1"
     pagecolor="#ffffff"
     bordercolor="#000000"
     borderopacity="0.25"
     inkscape:showpageshadow="2"
     inkscape:pageopacity="0.0"
     inkscape:pagecheckerboard="0"
     inkscape:deskcolor="#d1d1d1"
     inkscape:document-units="mm"><inkscape:page
       x="1.8651214e-13"
       y="0"
       width="479.69891"
       height="437.48337"
       id="page2"
       margin="0"
       bleed="0" /></sodipodi:namedview><defs
     id="defs1"><linearGradient
       id="swatch74"
       inkscape:swatch="solid"><stop
         style="stop-color:#000000;stop-opacity:1;"
         offset="0"
         id="stop74" /></linearGradient><linearGradient
       id="swatch73"
       inkscape:swatch="solid"><stop
         style="stop-color:#000000;stop-opacity:1;"
         offset="0"
         id="stop73" /></linearGradient><linearGradient
       id="swatch3323"
       inkscape:swatch="solid"><stop
         style="stop-color:#000000;stop-opacity:1;"
         offset="0"
         id="stop3323" /></linearGradient><linearGradient
       id="swatch139"
       inkscape:swatch="solid"><stop
         style="stop-color:#ffffff;stop-opacity:1;"
         offset="0"
         id="stop139" /></linearGradient><linearGradient
       id="swatch132"
       inkscape:swatch="solid"><stop
         style="stop-color:#026fd7;stop-opacity:1;"
         offset="0"
         id="stop132" /></linearGradient><linearGradient
       id="swatch127"
       inkscape:swatch="solid"><stop
         style="stop-color:#000000;stop-opacity:0.22203673;"
         offset="0"
         id="stop127" /></linearGradient><linearGradient
       id="linearGradient121"
       inkscape:swatch="gradient"><stop
         style="stop-color:#000000;stop-opacity:1;"
         offset="0"
         id="stop122" /><stop
         style="stop-color:#000000;stop-opacity:0;"
         offset="1"
         id="stop123" /></linearGradient><linearGradient
       id="swatch117"
       inkscape:swatch="solid"><stop
         style="stop-color:#fefeff;stop-opacity:1;"
         offset="0"
         id="stop117" /></linearGradient><linearGradient
       id="swatch27"
       inkscape:swatch="solid"><stop
         style="stop-color:#336f2d;stop-opacity:1;"
         offset="0"
         id="stop27" /></linearGradient></defs><g
     inkscape:groupmode="layer"
     id="layer7"
     inkscape:label="Layer 3"
     transform="translate(-1798.4221,-369.84875)"><path
       id="path97"
       style="fill-rule:evenodd;stroke-width:0.264537"
       d="m 1877.3433,369.84874 v 218.73704 109.76229 h -0.5302 -24.985 -53.1131 v 54.19049 54.00032 h 1.0485 v 0.19327 h 51.0166 26.033 1.0485 v -0.18035 h 106.8586 V 704.96317 c -0.043,-0.049 -0.069,-0.10972 -0.069,-0.17622 v -116.20117 -0.29611 c 0,-0.066 0.026,-0.12731 0.069,-0.17621 V 479.22191 478.4416 h 107.3681 v 0.78031 108.58355 0.78032 l -0.2723,0.19275 c 0.1469,-0.1014 0.3411,0.13026 0.3411,0.29146 v 116.49728 c 0,0.065 -0.026,0.1272 -0.069,0.1757 v 101.58915 h 107.3774 v -0.37672 h 0.5571 v 0.19275 h 51.0165 26.0331 0.9012 0.1473 v -53.99722 -54.38635 h -0.1473 -0.9012 -24.9851 -52.6216 V 587.80546 369.84874 Z m -78.9213,105.35688 v 108.38356 h 49.5841 26.033 1.0485 v -53.99722 -54.38634 h -1.0485 -24.985 z m 403.4069,0 v 54.19049 53.9998 h 1.0485 v 0.19327 h 51.0165 24.0797 V 475.20562 h -23.0317 z" /></g></svg>
