<?xml version="1.0" encoding="UTF-8" standalone="no"?>
<!-- Created with Inkscape (http://www.inkscape.org/) -->

<svg
   width="483.49036mm"
   height="513.25189mm"
   viewBox="0 0 483.49037 513.25187"
   version="1.1"
   id="svg1"
   xml:space="preserve"
   xmlns:inkscape="http://www.inkscape.org/namespaces/inkscape"
   xmlns:sodipodi="http://sodipodi.sourceforge.net/DTD/sodipodi-0.dtd"
   xmlns="http://www.w3.org/2000/svg"
   xmlns:svg="http://www.w3.org/2000/svg"><sodipodi:namedview
     id="namedview1"
     pagecolor="#ffffff"
     bordercolor="#000000"
     borderopacity="0.25"
     inkscape:showpageshadow="2"
     inkscape:pageopacity="0.0"
     inkscape:pagecheckerboard="0"
     inkscape:deskcolor="#d1d1d1"
     inkscape:document-units="mm"><inkscape:page
       x="-4.8525127e-13"
       y="1.4510301e-13"
       width="483.49039"
       height="513.25183"
       id="page2"
       margin="0"
       bleed="0" /></sodipodi:namedview><defs
     id="defs1"><linearGradient
       id="swatch74"
       inkscape:swatch="solid"><stop
         style="stop-color:#000000;stop-opacity:1;"
         offset="0"
         id="stop74" /></linearGradient><linearGradient
       id="swatch73"
       inkscape:swatch="solid"><stop
         style="stop-color:#000000;stop-opacity:1;"
         offset="0"
         id="stop73" /></linearGradient><linearGradient
       id="swatch3323"
       inkscape:swatch="solid"><stop
         style="stop-color:#000000;stop-opacity:1;"
         offset="0"
         id="stop3323" /></linearGradient><linearGradient
       id="swatch139"
       inkscape:swatch="solid"><stop
         style="stop-color:#ffffff;stop-opacity:1;"
         offset="0"
         id="stop139" /></linearGradient><linearGradient
       id="swatch132"
       inkscape:swatch="solid"><stop
         style="stop-color:#026fd7;stop-opacity:1;"
         offset="0"
         id="stop132" /></linearGradient><linearGradient
       id="swatch127"
       inkscape:swatch="solid"><stop
         style="stop-color:#000000;stop-opacity:0.22203673;"
         offset="0"
         id="stop127" /></linearGradient><linearGradient
       id="linearGradient121"
       inkscape:swatch="gradient"><stop
         style="stop-color:#000000;stop-opacity:1;"
         offset="0"
         id="stop122" /><stop
         style="stop-color:#000000;stop-opacity:0;"
         offset="1"
         id="stop123" /></linearGradient><linearGradient
       id="swatch117"
       inkscape:swatch="solid"><stop
         style="stop-color:#fefeff;stop-opacity:1;"
         offset="0"
         id="stop117" /></linearGradient><linearGradient
       id="swatch27"
       inkscape:swatch="solid"><stop
         style="stop-color:#336f2d;stop-opacity:1;"
         offset="0"
         id="stop27" /></linearGradient></defs><g
     inkscape:groupmode="layer"
     id="layer7"
     inkscape:label="Layer 3"
     transform="translate(-1797.6856,-638.65459)"><path
       id="path86"
       style="fill-rule:evenodd;stroke-width:0.264537"
       d="m 1878.3698,638.65456 v 256.62051 255.71613 h 107.3769 v -119.1834 c -0.043,-0.057 -0.069,-0.1287 -0.069,-0.2062 V 895.27507 894.9278 c 0,-0.0777 0.026,-0.1494 0.069,-0.2067 v -127.75086 -0.91519 h 107.3682 v 0.91519 127.38964 0.91519 l -0.2724,0.22634 c 0.147,-0.11894 0.3412,0.15252 0.3412,0.34158 v 136.67381 c 0,0.077 -0.026,0.1492 -0.069,0.2062 v 119.1834 h 107.3771 V 894.35988 638.65456 Z"
       sodipodi:nodetypes="cccccscscccccccssscccccc"
       inkscape:export-filename="pi.svg"
       inkscape:export-xdpi="96"
       inkscape:export-ydpi="96" /><path
       id="path90"
       style="fill-rule:evenodd;stroke-width:0.264537"
       d="m 1797.6856,766.4468 v 63.75889 63.53463 h 1.0485 v 0.22737 h 51.0166 26.033 1.0485 V 830.43617 766.4468 h -1.0485 -24.985 z m 52.0279,63.81005 c 0,10e-4 0.01,0.003 0.01,0.005 0,10e-4 0,0.003 0.01,0.005 0,-0.002 0,-0.003 -0.01,-0.005 0,-0.002 -0.01,-0.003 -0.01,-0.005 z m -24.9629,0.0491 c 0,0.0149 0.01,0.0285 0.015,0.0398 -0.01,-0.0113 -0.013,-0.0249 -0.015,-0.0398 z" /><path
       id="path90-0"
       style="fill-rule:evenodd;stroke-width:0.264537"
       d="m 2202.0294,766.4468 v 63.75889 63.53463 h 1.0485 v 0.22737 h 51.0166 26.033 1.0485 V 830.43617 766.4468 h -1.0485 -24.985 z m 52.0279,63.81005 c 0,10e-4 0.01,0.003 0.01,0.005 0,10e-4 0,0.003 0.01,0.005 0,-0.002 0,-0.003 -0.01,-0.005 0,-0.002 -0.01,-0.003 -0.01,-0.005 z m -24.9629,0.0491 c 0,0.0149 0.01,0.0285 0.015,0.0398 -0.01,-0.0113 -0.013,-0.0249 -0.015,-0.0398 z" /></g></svg>
